<?xml version="1.0" standalone="no"?>
<!DOCTYPE svg PUBLIC "-//W3C//DTD SVG 20010904//EN"
 "http://www.w3.org/TR/2001/REC-SVG-20010904/DTD/svg10.dtd">
<svg version="1.0" xmlns="http://www.w3.org/2000/svg"
 width="493.000000pt" height="494.000000pt" viewBox="0 0 493.000000 494.000000"
 preserveAspectRatio="xMidYMid meet">

<g transform="translate(0.000000,494.000000) scale(0.100000,-0.100000)"
fill="#000000" stroke="none">
<path d="M1542 4138 c-18 -18 -15 -59 7 -93 10 -16 77 -102 149 -190 72 -88
129 -161 127 -163 -2 -2 -33 6 -70 17 -37 12 -89 21 -117 21 -53 0 -76 -17
-118 -86 -26 -40 -37 -45 -87 -31 -73 19 -137 -28 -150 -110 -7 -47 -12 -52
-147 -174 l-108 -98 -60 50 c-33 27 -82 61 -110 75 -55 28 -186 64 -227 63
-14 0 1 -6 34 -14 33 -7 80 -18 105 -25 40 -11 43 -14 26 -24 -41 -24 -78 -60
-87 -84 -13 -34 -7 -36 38 -14 81 41 182 39 234 -5 16 -14 29 -28 29 -31 0 -4
-44 -45 -96 -92 -227 -200 -399 -440 -621 -866 l-84 -162 43 -37 c85 -73 282
-175 338 -175 21 0 39 22 114 138 50 75 134 211 188 302 55 91 103 169 108
174 4 4 24 3 45 -4 20 -7 61 -13 90 -14 42 -2 60 -9 91 -34 36 -30 89 -50 101
-38 4 3 -3 6 -13 6 -21 0 -107 50 -118 68 -4 6 17 32 45 59 46 44 57 49 113
55 88 9 181 44 263 100 40 26 77 48 84 48 42 0 189 -150 243 -249 l27 -50 -21
-38 c-11 -21 -20 -42 -20 -48 1 -5 12 10 24 35 13 25 37 59 52 75 l28 30 7
-25 7 -25 1 28 c1 34 -18 35 -49 2 l-24 -25 -33 60 c-19 33 -59 87 -89 119
-37 40 -54 68 -55 87 -1 24 -2 25 -6 7 -2 -13 -7 -23 -11 -23 -9 1 -62 47 -62
55 0 6 63 35 75 35 3 0 6 -10 6 -22 1 -17 2 -19 6 -5 2 9 8 17 12 17 14 0 63
-41 139 -114 61 -60 72 -76 73 -106 1 -25 3 -28 6 -12 4 23 5 23 24 6 18 -16
19 -16 19 3 0 11 -7 39 -15 62 -8 22 -13 41 -11 41 2 0 16 -19 32 -42 31 -45
64 -131 95 -238 18 -65 27 -240 12 -240 -17 0 -73 40 -73 52 0 9 -3 8 -10 -2
-7 -12 0 -20 35 -38 25 -12 45 -27 45 -33 0 -6 7 -8 16 -5 11 4 43 -22 105
-84 l90 -90 -29 -42 c-16 -24 -32 -54 -36 -68 -4 -15 2 -9 15 15 12 22 30 50
41 62 18 19 19 24 5 43 -22 32 -90 103 -137 143 l-43 36 21 48 c20 47 61 202
63 239 1 11 5 -3 10 -31 22 -120 27 -120 66 3 25 78 28 101 28 229 0 112 3
139 13 131 8 -7 12 -7 12 0 0 5 -9 16 -21 23 -16 11 -20 23 -17 51 l3 36 58
-69 c31 -38 57 -76 57 -84 0 -9 6 -12 15 -9 8 3 44 -13 81 -36 36 -23 68 -39
71 -37 2 3 -9 32 -26 66 -17 33 -31 66 -31 73 0 7 -14 33 -30 58 -21 32 -30
57 -30 86 0 39 3 44 50 74 63 41 131 115 160 177 23 49 42 113 33 113 -3 0
-28 -20 -56 -45 -65 -57 -126 -87 -186 -92 -46 -3 -46 -3 -79 49 -39 60 -54
142 -71 381 -7 109 -14 144 -30 170 -43 69 -99 73 -247 17 -59 -23 -110 -40
-114 -38 -4 2 -42 46 -85 98 -95 116 -270 296 -307 316 -33 17 -70 18 -86 2z
m794 -367 c45 -27 64 -91 64 -210 1 -90 9 -180 25 -261 6 -33 4 -36 -24 -47
-28 -10 -31 -9 -31 9 0 40 -43 160 -74 206 -37 56 -84 82 -275 151 l-135 49
45 11 c41 11 160 50 274 92 65 23 93 23 131 0z m-491 -106 c168 -57 361 -132
392 -152 31 -21 78 -100 98 -165 36 -119 57 -381 39 -488 -6 -34 -8 -36 -39
-32 -27 3 -36 -1 -51 -23 l-18 -27 -22 73 c-12 41 -41 126 -63 189 -39 109
-45 118 -104 175 -129 123 -296 243 -438 314 l-136 67 38 54 c21 29 44 57 51
62 24 17 113 0 253 -47z m-344 -90 c147 -56 245 -113 389 -223 150 -115 215
-174 235 -213 33 -62 121 -329 139 -422 l13 -68 -22 21 c-30 28 -71 26 -100
-6 -14 -15 -25 -33 -25 -40 0 -44 -63 42 -173 236 -90 160 -170 264 -262 342
-88 75 -131 91 -224 85 -76 -5 -191 -41 -191 -59 0 -6 8 -7 18 -2 145 63 238
68 319 16 67 -44 185 -164 243 -248 28 -40 50 -74 50 -76 0 -2 -15 -2 -33 0
-38 4 -87 -29 -87 -58 0 -16 -4 -18 -22 -11 -13 4 -44 11 -70 15 -85 13 -198
119 -198 187 0 15 -5 31 -12 35 -8 5 -9 -3 -3 -32 15 -73 10 -107 -29 -184
-58 -114 -124 -207 -207 -292 -70 -71 -79 -78 -116 -78 -79 0 -199 48 -286
114 -26 20 -47 32 -47 27 0 -14 69 -65 128 -95 28 -14 52 -30 52 -35 0 -23
-354 -590 -378 -605 -28 -17 -248 90 -332 163 l-43 37 78 150 c249 477 383
656 695 931 184 163 350 323 350 337 0 5 -13 -3 -30 -19 -34 -32 -38 -21 -13
32 16 34 64 73 91 73 7 0 53 -16 103 -35z m-662 -275 c-41 -3 -80 -10 -88 -14
-9 -6 -12 -5 -9 5 2 8 24 24 48 36 l43 22 40 -22 40 -22 -74 -5z m796 -431
c22 -10 50 -19 63 -19 12 0 39 -7 60 -16 l37 -15 -42 -19 c-23 -10 -76 -41
-118 -69 -43 -28 -100 -62 -129 -75 -51 -24 -182 -53 -192 -43 -3 3 13 29 35
58 51 63 110 165 141 240 l23 56 41 -40 c22 -22 59 -48 81 -58z"/>
<path d="M4007 3504 c-3 -69 -8 -128 -11 -132 -4 -3 -21 3 -39 13 -20 12 -8
-3 34 -43 90 -84 122 -154 122 -268 0 -70 -4 -91 -30 -145 -31 -64 -114 -171
-138 -177 -21 -5 -38 64 -31 125 6 50 5 53 -12 44 -44 -23 -128 -130 -162
-203 -41 -90 -30 -86 -246 -90 -113 -3 -131 -1 -126 12 3 10 2 12 -5 5 -16
-15 -45 -138 -40 -166 3 -20 5 -18 6 9 1 36 6 38 75 17 27 -8 69 -15 93 -15
49 0 183 28 183 38 0 4 -26 15 -58 24 -31 10 -75 29 -97 42 l-40 25 90 1 c199
1 291 34 400 144 131 132 151 190 153 441 2 188 -10 256 -64 355 -47 87 -51
84 -57 -56z m53 26 c29 -58 61 -203 58 -262 l-3 -52 -29 45 c-16 24 -40 56
-53 71 -24 25 -24 29 -14 78 6 28 11 76 11 105 0 30 2 55 5 55 2 0 14 -18 25
-40z m-168 -672 c-2 -18 3 -54 11 -80 11 -35 12 -50 3 -56 -39 -30 -162 -80
-172 -69 -10 9 72 150 112 192 23 25 44 45 46 45 2 0 2 -15 0 -32z m-399 -266
c8 -9 38 -26 66 -37 28 -11 51 -22 51 -26 0 -20 -135 -24 -205 -6 -45 12 -50
16 -50 43 -1 33 15 41 81 43 27 1 46 -5 57 -17z"/>
<path d="M3018 3106 c-21 -24 -61 -56 -90 -70 -28 -14 -45 -26 -37 -26 23 0
101 53 132 90 30 36 32 36 46 0 5 -14 10 -18 10 -10 0 8 -5 25 -12 38 -13 22
-13 22 -49 -22z"/>
<path d="M3091 3014 c0 -11 3 -14 6 -6 3 7 2 16 -1 19 -3 4 -6 -2 -5 -13z"/>
<path d="M2848 3003 c7 -3 16 -2 19 1 4 3 -2 6 -13 5 -11 0 -14 -3 -6 -6z"/>
<path d="M2798 2993 c7 -3 16 -2 19 1 4 3 -2 6 -13 5 -11 0 -14 -3 -6 -6z"/>
<path d="M2758 2983 c7 -3 16 -2 19 1 4 3 -2 6 -13 5 -11 0 -14 -3 -6 -6z"/>
<path d="M2679 2949 l-24 -20 28 17 c15 9 27 18 27 20 0 8 -8 4 -31 -17z"/>
<path d="M3104 2860 c0 -63 1 -89 3 -57 2 31 2 83 0 115 -2 31 -3 5 -3 -58z"/>
<path d="M2625 2910 c-3 -5 -2 -10 4 -10 5 0 13 5 16 10 3 6 2 10 -4 10 -5 0
-13 -4 -16 -10z"/>
<path d="M2591 2868 c-14 -23 -14 -23 8 -4 22 20 25 26 13 26 -4 0 -13 -10
-21 -22z"/>
<path d="M3448 2813 l44 -4 -19 -22 c-18 -22 -18 -22 3 -4 11 9 26 17 32 17 7
0 12 5 12 10 0 6 -25 9 -57 8 -52 -1 -53 -2 -15 -5z"/>
<path d="M3353 2803 c9 -2 23 -2 30 0 6 3 -1 5 -18 5 -16 0 -22 -2 -12 -5z"/>
<path d="M3254 2774 c-18 -14 -18 -14 6 -3 31 14 36 19 24 19 -6 0 -19 -7 -30
-16z"/>
<path d="M3191 2724 c-18 -19 -42 -52 -55 -72 -13 -21 -31 -43 -40 -51 -14
-12 -16 -11 -17 5 -1 14 -3 13 -9 -6 -16 -49 -9 -50 30 -3 98 116 170 218 91
127z"/>
<path d="M3413 2728 c-22 -26 -37 -48 -30 -48 3 0 17 16 31 35 30 39 30 46 -1
13z"/>
<path d="M2490 2679 c27 -34 56 -77 65 -96 9 -19 19 -32 22 -29 11 10 -111
184 -129 186 -5 0 14 -28 42 -61z"/>
<path d="M3091 2704 c0 -11 3 -14 6 -6 3 7 2 16 -1 19 -3 4 -6 -2 -5 -13z"/>
<path d="M1551 2624 c0 -11 3 -14 6 -6 3 7 2 16 -1 19 -3 4 -6 -2 -5 -13z"/>
<path d="M3170 2601 c0 -13 -89 -110 -112 -122 -18 -10 -19 -8 -14 13 5 21 5
21 -7 -3 -6 -14 -40 -52 -73 -85 -63 -61 -107 -133 -118 -194 -4 -23 2 -13 18
28 36 94 70 136 176 217 52 41 103 87 113 104 10 17 23 29 28 26 5 -4 9 1 9 9
0 9 -4 16 -10 16 -5 0 -10 -4 -10 -9z"/>
<path d="M1562 2580 c0 -14 2 -19 5 -12 2 6 2 18 0 25 -3 6 -5 1 -5 -13z"/>
<path d="M2581 2540 c0 -3 6 -27 14 -55 8 -30 14 -40 14 -25 0 20 -26 97 -28
80z"/>
<path d="M1370 2488 c38 -52 39 -75 3 -81 -16 -3 3 -3 41 -1 68 3 166 30 166
46 0 11 -14 10 -27 -3 -7 -7 -15 -2 -27 16 -23 34 -90 65 -144 65 l-42 0 30
-42z m123 -16 l28 -27 -28 -12 c-15 -7 -40 -12 -55 -13 -24 0 -28 4 -28 27 0
14 -8 35 -17 46 -18 20 -17 20 27 13 28 -4 55 -17 73 -34z"/>
<path d="M1572 2510 c0 -14 2 -19 5 -12 2 6 2 18 0 25 -3 6 -5 1 -5 -13z"/>
<path d="M3202 2505 c0 -16 2 -22 5 -12 2 9 2 23 0 30 -3 6 -5 -1 -5 -18z"/>
<path d="M3312 2405 c0 -38 2 -43 7 -21 3 16 15 33 26 37 19 7 19 8 -2 8 -12
1 -24 7 -26 14 -3 6 -5 -10 -5 -38z"/>
<path d="M2052 2415 c0 -16 4 -41 8 -55 l8 -25 0 25 c0 14 -4 39 -8 55 l-8 30
0 -30z"/>
<path d="M3388 2433 c7 -3 16 -2 19 1 4 3 -2 6 -13 5 -11 0 -14 -3 -6 -6z"/>
<path d="M1582 2400 c0 -19 4 -46 8 -60 6 -20 8 -21 8 -5 1 11 -3 38 -7 60
l-9 40 0 -35z"/>
<path d="M3460 2420 c34 -11 60 -11 35 0 -11 5 -29 8 -40 8 -16 0 -15 -2 5 -8z"/>
<path d="M2612 2400 c0 -14 2 -19 5 -12 2 6 2 18 0 25 -3 6 -5 1 -5 -13z"/>
<path d="M3565 2390 c11 -5 29 -8 40 -8 16 0 15 2 -5 8 -34 11 -60 11 -35 0z"/>
<path d="M3891 2391 c-8 -6 -9 -11 -3 -15 6 -3 14 -1 17 5 9 14 2 20 -14 10z"/>
<path d="M3202 2365 c0 -16 2 -22 5 -12 2 9 2 23 0 30 -3 6 -5 -1 -5 -18z"/>
<path d="M3638 2373 c7 -3 16 -2 19 1 4 3 -2 6 -13 5 -11 0 -14 -3 -6 -6z"/>
<path d="M3703 2363 c9 -2 25 -2 35 0 9 3 1 5 -18 5 -19 0 -27 -2 -17 -5z"/>
<path d="M3793 2363 c9 -2 25 -2 35 0 9 3 1 5 -18 5 -19 0 -27 -2 -17 -5z"/>
<path d="M2589 2310 c-8 -27 -12 -47 -8 -44 10 6 31 72 27 83 -2 5 -10 -12
-19 -39z"/>
<path d="M3822 2281 c-121 -157 -207 -203 -427 -231 -49 -6 -91 -12 -92 -14
-1 -1 35 -2 80 -3 45 -1 124 -8 176 -17 52 -8 134 -19 182 -22 49 -4 86 -11
83 -15 -3 -5 11 1 31 12 20 12 39 28 42 36 15 38 -48 89 -135 113 l-43 11 53
59 c52 57 123 150 115 150 -2 0 -31 -36 -65 -79z m22 -191 c30 -18 36 -28 34
-48 -5 -44 -48 -47 -248 -21 -150 20 -168 24 -130 30 56 9 147 43 179 68 22
17 30 17 76 6 29 -6 69 -22 89 -35z"/>
<path d="M1916 2334 c-3 -9 -6 -27 -6 -41 0 -16 -7 -27 -20 -30 -22 -6 -23
-18 -10 -78 9 -39 9 -39 6 13 l-3 53 31 -6 c21 -4 27 -3 17 3 -10 7 -12 22 -8
56 7 47 4 59 -7 30z"/>
<path d="M2071 2324 c-1 -15 30 -106 35 -101 2 2 -5 28 -15 58 -11 30 -20 49
-20 43z"/>
<path d="M3302 2310 c0 -14 2 -19 5 -12 2 6 2 18 0 25 -3 6 -5 1 -5 -13z"/>
<path d="M3191 2304 c0 -11 3 -14 6 -6 3 7 2 16 -1 19 -3 4 -6 -2 -5 -13z"/>
<path d="M3172 2240 c-6 -24 -9 -46 -7 -48 6 -6 27 68 23 80 -3 7 -10 -8 -16
-32z"/>
<path d="M3291 2270 c-1 -8 -4 -26 -7 -40 -5 -22 -4 -23 6 -7 6 10 9 28 7 40
-2 12 -5 15 -6 7z"/>
<path d="M1620 2251 c0 -6 4 -13 10 -16 6 -3 7 1 4 9 -7 18 -14 21 -14 7z"/>
<path d="M1273 2230 c-55 -11 -119 -45 -137 -73 -29 -44 -29 -73 -3 -132 14
-30 29 -55 32 -55 3 0 1 9 -5 19 -13 26 -13 34 3 24 6 -4 104 -11 217 -14 174
-5 214 -10 264 -28 81 -29 156 -72 251 -145 44 -34 91 -69 105 -78 14 -9 44
-34 68 -56 l42 -39 -47 -21 c-27 -12 -37 -19 -23 -16 19 4 31 -2 48 -21 13
-15 51 -40 85 -56 71 -33 156 -39 226 -14 35 12 46 12 73 0 136 -56 286 -32
392 63 l40 35 -40 -6 c-82 -14 -257 -20 -251 -10 4 6 17 13 30 17 35 8 100 37
95 41 -2 2 -33 -8 -68 -22 -49 -20 -83 -27 -140 -27 -90 -1 -139 19 -176 73
-13 19 -24 30 -24 24 0 -6 12 -25 26 -42 l25 -30 -26 -7 c-14 -3 -63 -4 -108
-2 -94 5 -135 25 -201 98 -45 50 -99 161 -120 246 -7 33 -14 51 -15 42 -1 -23
-2 -22 -59 4 -44 21 -158 124 -196 178 -17 24 -17 24 0 -5 9 -16 27 -41 40
-56 13 -14 24 -28 24 -31 0 -3 -47 18 -105 47 -130 66 -251 93 -342 75z m200
-29 c66 -19 225 -98 302 -151 22 -15 63 -39 91 -53 43 -22 52 -31 57 -60 3
-18 18 -61 35 -95 16 -34 27 -62 24 -62 -3 0 -39 26 -81 59 -150 115 -220 148
-370 171 -54 8 -121 11 -190 6 -153 -9 -211 12 -211 75 0 45 15 66 73 99 45
26 62 30 127 30 44 0 103 -8 143 -19z"/>
<path d="M2014 2214 c38 -13 71 -22 73 -20 5 5 -116 46 -131 45 -6 0 20 -11
58 -25z"/>
<path d="M3260 2165 c-19 -58 -105 -179 -157 -220 -62 -50 -72 -60 -48 -47 11
5 41 29 67 51 26 23 64 48 85 56 l38 15 -35 -6 -34 -7 27 37 c32 41 82 145 74
152 -3 3 -10 -11 -17 -31z"/>
<path d="M3121 2114 c-33 -63 -88 -121 -150 -157 -30 -17 -31 -17 -32 0 0 10
-7 -4 -14 -32 -8 -27 -12 -51 -10 -53 2 -3 7 8 11 22 4 18 26 40 63 66 32 21
72 55 89 75 31 34 87 133 80 140 -2 2 -18 -25 -37 -61z"/>
<path d="M2831 2154 c0 -11 3 -14 6 -6 3 7 2 16 -1 19 -3 4 -6 -2 -5 -13z"/>
<path d="M1892 2110 c0 -14 2 -19 5 -12 2 6 2 18 0 25 -3 6 -5 1 -5 -13z"/>
<path d="M2822 2073 c-2 -50 -3 -52 -34 -56 -21 -2 -13 -4 22 -5 46 -2 64 3
98 25 27 18 42 35 42 48 -1 17 -3 16 -16 -7 -15 -28 -61 -58 -88 -58 -11 0
-16 14 -19 53 l-3 52 -2 -52z"/>
<path d="M1902 2060 c0 -14 2 -19 5 -12 2 6 2 18 0 25 -3 6 -5 1 -5 -13z"/>
<path d="M2598 2033 c17 -2 47 -2 65 0 17 2 3 4 -33 4 -36 0 -50 -2 -32 -4z"/>
<path d="M2942 2015 c0 -16 2 -22 5 -12 2 9 2 23 0 30 -3 6 -5 -1 -5 -18z"/>
<path d="M2718 2023 c7 -3 16 -2 19 1 4 3 -2 6 -13 5 -11 0 -14 -3 -6 -6z"/>
<path d="M3258 2023 c7 -3 16 -2 19 1 4 3 -2 6 -13 5 -11 0 -14 -3 -6 -6z"/>
<path d="M2488 2004 c-39 -21 -35 -28 5 -8 37 19 44 24 31 24 -5 -1 -21 -8
-36 -16z"/>
<path d="M2429 1963 c-13 -16 -12 -17 4 -4 9 7 17 15 17 17 0 8 -8 3 -21 -13z"/>
<path d="M1187 1935 c12 -16 34 -41 49 -55 19 -17 15 -10 -10 20 -53 61 -63
71 -39 35z"/>
<path d="M3754 1934 c-18 -14 -18 -15 4 -4 12 6 22 13 22 15 0 8 -5 6 -26 -11z"/>
<path d="M3640 1875 c-47 -24 -82 -44 -77 -44 10 -1 167 78 167 84 0 7 4 9
-90 -40z"/>
<path d="M2995 1875 c-16 -7 -23 -14 -14 -14 8 -1 24 6 35 14 24 18 18 18 -21
0z"/>
<path d="M2887 1825 c-20 -42 -14 -47 8 -6 10 19 24 31 42 34 28 4 28 4 -3 6
-25 1 -33 -5 -47 -34z"/>
<path d="M1260 1847 c0 -2 26 -26 58 -53 31 -26 48 -38 37 -25 -22 25 -95 85
-95 78z"/>
<path d="M2323 1770 c0 -25 2 -35 4 -22 2 12 2 32 0 45 -2 12 -4 2 -4 -23z"/>
<path d="M3480 1800 c-8 -5 -10 -10 -5 -10 6 0 17 5 25 10 8 5 11 10 5 10 -5
0 -17 -5 -25 -10z"/>
<path d="M2806 1723 c-33 -31 -50 -51 -38 -44 33 18 118 103 100 101 -2 -1
-30 -26 -62 -57z"/>
<path d="M3395 1765 c-25 -12 -26 -14 -5 -9 28 7 60 23 45 23 -5 0 -23 -6 -40
-14z"/>
<path d="M1405 1725 c30 -26 65 -49 65 -42 0 2 -21 18 -47 36 -36 25 -41 26
-18 6z"/>
<path d="M3310 1730 c-8 -5 -10 -10 -5 -10 6 0 17 5 25 10 8 5 11 10 5 10 -5
0 -17 -5 -25 -10z"/>
<path d="M3465 1704 c-114 -24 -241 -32 -230 -14 7 12 -2 12 -30 1 -19 -8 -19
-8 5 -16 14 -4 39 -24 56 -44 38 -44 114 -87 169 -96 l40 -7 -32 32 c-27 26
-33 39 -33 74 l0 44 73 18 c39 10 106 19 149 19 69 0 81 -3 120 -30 30 -21 52
-48 73 -90 29 -57 30 -66 31 -195 1 -108 6 -146 22 -193 28 -78 66 -142 120
-199 36 -39 46 -58 57 -113 9 -43 26 -83 47 -113 46 -63 58 -64 58 -5 0 76 9
83 72 51 147 -74 302 -129 359 -127 13 0 18 3 12 6 -25 9 -13 47 27 85 44 41
42 43 -32 39 -36 -3 -121 -26 -184 -52 -29 -11 -38 -9 -108 24 -92 44 -200
112 -257 164 -63 57 -137 168 -159 241 -22 71 -28 246 -9 257 6 4 30 38 55 76
30 47 55 75 79 86 41 20 33 29 -37 38 -55 8 -112 -8 -132 -36 -13 -19 -14 -19
-35 15 -14 21 -42 44 -73 60 -65 33 -123 33 -273 0z m-75 -70 c0 -19 5 -44 10
-55 6 -10 9 -19 7 -19 -15 0 -88 44 -111 67 l-28 28 53 6 c30 3 57 6 62 7 4 1
7 -14 7 -34z m600 10 c0 -3 -13 -18 -29 -34 -15 -16 -35 -44 -44 -63 -9 -19
-23 -39 -30 -46 -12 -9 -15 -4 -20 26 -3 21 -9 48 -13 60 -5 18 1 26 27 42 31
19 109 30 109 15z m160 -812 c-5 -15 -10 -36 -12 -47 -3 -16 -9 -11 -30 25
-14 25 -29 60 -33 79 l-7 33 45 -31 c42 -29 45 -33 37 -59z m445 -48 c-14 -20
-25 -43 -25 -50 0 -18 -6 -17 -66 2 -27 9 -56 18 -64 21 -22 7 6 20 88 43 93
25 95 25 67 -16z"/>
<path d="M1480 1676 c0 -3 14 -12 30 -21 17 -9 30 -13 30 -11 0 3 -13 12 -30
21 -16 9 -30 13 -30 11z"/>
<path d="M3115 1660 c-13 -5 -14 -9 -5 -9 8 0 24 4 35 9 13 5 14 9 5 9 -8 0
-24 -4 -35 -9z"/>
<path d="M1560 1630 c8 -5 20 -10 25 -10 6 0 3 5 -5 10 -8 5 -19 10 -25 10 -5
0 -3 -5 5 -10z"/>
<path d="M3008 1633 c6 -2 18 -2 25 0 6 3 1 5 -13 5 -14 0 -19 -2 -12 -5z"/>
<path d="M2938 1623 c12 -2 30 -2 40 0 9 3 -1 5 -23 4 -22 0 -30 -2 -17 -4z"/>
<path d="M1680 1590 c25 -8 97 -13 89 -6 -2 2 -29 6 -59 9 -36 4 -46 3 -30 -3z"/>
<path d="M1901 1593 c-19 -3 -43 -10 -55 -18 -12 -7 -58 -15 -104 -18 -157
-10 -217 -64 -209 -187 3 -36 8 -72 12 -81 4 -12 -2 -19 -25 -28 -47 -16 -108
-68 -130 -111 -20 -40 -37 -120 -26 -120 4 0 22 11 39 24 55 41 115 66 157 66
45 0 49 -9 25 -66 -23 -56 -61 -98 -238 -264 -92 -85 -164 -156 -162 -159 3
-2 32 21 64 52 45 43 67 57 89 57 34 0 99 -44 127 -86 l19 -29 12 30 c23 55
26 118 10 189 l-16 68 50 55 c81 89 86 148 26 306 -26 67 -34 149 -17 175 13
21 60 3 101 -40 30 -30 39 -35 44 -22 17 43 -6 101 -49 124 -26 14 -26 14 -5
22 12 4 61 11 108 14 48 4 96 11 107 17 11 6 42 16 70 22 50 13 41 16 -24 8z
m-231 -132 c5 -11 10 -28 10 -38 -1 -16 -2 -16 -13 -2 -7 8 -28 24 -47 35 -19
10 -37 20 -39 21 -2 2 2 9 9 17 11 14 15 14 41 1 15 -9 33 -24 39 -34z m-101
-252 c7 -23 15 -47 17 -54 4 -9 -11 -15 -49 -19 -37 -5 -71 -18 -106 -41 -55
-37 -61 -32 -32 30 21 44 61 86 106 109 44 23 51 20 64 -25z m-75 -446 c0 -45
-3 -85 -6 -88 -4 -4 -25 12 -48 34 -31 30 -51 41 -74 41 l-31 0 68 67 c64 62
70 66 80 48 6 -11 11 -57 11 -102z"/>
</g>
</svg>
